<mxfile host="app.diagrams.net" modified="2023-09-27T18:29:44.734Z" agent="Mozilla/5.0 (X11; Linux x86_64; rv:109.0) Gecko/20100101 Firefox/114.0" etag="PcNppHc2_B96olHRLuoO" version="21.8.2" type="github">
  <diagram name="Página-1" id="7N8YuSMuHOciM2-NBYDu">
    <mxGraphModel dx="1834" dy="795" grid="1" gridSize="10" guides="1" tooltips="1" connect="1" arrows="1" fold="1" page="0" pageScale="1" pageWidth="827" pageHeight="1169" math="0" shadow="0">
      <root>
        <mxCell id="0" />
        <mxCell id="1" parent="0" />
        <mxCell id="WR90yhrpMD2aqpalSn86-24" style="edgeStyle=orthogonalEdgeStyle;rounded=0;orthogonalLoop=1;jettySize=auto;html=1;endArrow=none;endFill=0;" edge="1" parent="1" source="wmR9hTvtpxQJqMOlJR0e-1" target="WR90yhrpMD2aqpalSn86-23">
          <mxGeometry relative="1" as="geometry" />
        </mxCell>
        <mxCell id="wmR9hTvtpxQJqMOlJR0e-1" value="Cliente" style="rounded=0;whiteSpace=wrap;html=1;fillColor=#007FFF;" parent="1" vertex="1">
          <mxGeometry x="-210" y="320" width="140" height="70" as="geometry" />
        </mxCell>
        <mxCell id="WR90yhrpMD2aqpalSn86-22" style="edgeStyle=orthogonalEdgeStyle;rounded=0;orthogonalLoop=1;jettySize=auto;html=1;entryX=1;entryY=0.5;entryDx=0;entryDy=0;endArrow=none;endFill=0;" edge="1" parent="1" source="WR90yhrpMD2aqpalSn86-6" target="wmR9hTvtpxQJqMOlJR0e-1">
          <mxGeometry relative="1" as="geometry" />
        </mxCell>
        <mxCell id="WR90yhrpMD2aqpalSn86-6" value="Artículo" style="rounded=0;whiteSpace=wrap;html=1;fillColor=#007FFF;" vertex="1" parent="1">
          <mxGeometry x="340" y="320" width="130" height="70" as="geometry" />
        </mxCell>
        <mxCell id="WR90yhrpMD2aqpalSn86-15" style="edgeStyle=orthogonalEdgeStyle;rounded=0;orthogonalLoop=1;jettySize=auto;html=1;entryX=1;entryY=0.75;entryDx=0;entryDy=0;entryPerimeter=0;endArrow=none;endFill=0;" edge="1" parent="1" source="wmR9hTvtpxQJqMOlJR0e-1">
          <mxGeometry relative="1" as="geometry">
            <mxPoint x="-260" y="220" as="targetPoint" />
          </mxGeometry>
        </mxCell>
        <mxCell id="WR90yhrpMD2aqpalSn86-16" style="edgeStyle=orthogonalEdgeStyle;rounded=0;orthogonalLoop=1;jettySize=auto;html=1;entryX=0.983;entryY=0.713;entryDx=0;entryDy=0;entryPerimeter=0;endArrow=none;endFill=0;" edge="1" parent="1" source="wmR9hTvtpxQJqMOlJR0e-1">
          <mxGeometry relative="1" as="geometry">
            <mxPoint x="-282.03999999999996" y="327.03999999999996" as="targetPoint" />
          </mxGeometry>
        </mxCell>
        <mxCell id="WR90yhrpMD2aqpalSn86-17" style="edgeStyle=orthogonalEdgeStyle;rounded=0;orthogonalLoop=1;jettySize=auto;html=1;entryX=1;entryY=0.75;entryDx=0;entryDy=0;entryPerimeter=0;endArrow=none;endFill=0;" edge="1" parent="1" source="wmR9hTvtpxQJqMOlJR0e-1">
          <mxGeometry relative="1" as="geometry">
            <mxPoint x="-260" y="440" as="targetPoint" />
          </mxGeometry>
        </mxCell>
        <mxCell id="WR90yhrpMD2aqpalSn86-36" style="edgeStyle=orthogonalEdgeStyle;rounded=0;orthogonalLoop=1;jettySize=auto;html=1;exitX=0.5;exitY=1;exitDx=0;exitDy=0;endArrow=none;endFill=0;" edge="1" parent="1" source="WR90yhrpMD2aqpalSn86-23" target="WR90yhrpMD2aqpalSn86-33">
          <mxGeometry relative="1" as="geometry" />
        </mxCell>
        <mxCell id="WR90yhrpMD2aqpalSn86-23" value="Direcciones de envio" style="ellipse;shape=doubleEllipse;margin=3;whiteSpace=wrap;html=1;align=center;fillColor=#CCCC00;" vertex="1" parent="1">
          <mxGeometry x="-170" y="460" width="140" height="90" as="geometry" />
        </mxCell>
        <mxCell id="WR90yhrpMD2aqpalSn86-26" style="edgeStyle=orthogonalEdgeStyle;rounded=0;orthogonalLoop=1;jettySize=auto;html=1;endArrow=none;endFill=0;" edge="1" parent="1" source="WR90yhrpMD2aqpalSn86-25" target="WR90yhrpMD2aqpalSn86-6">
          <mxGeometry relative="1" as="geometry" />
        </mxCell>
        <mxCell id="WR90yhrpMD2aqpalSn86-25" value="Descripción" style="ellipse;whiteSpace=wrap;html=1;align=center;fillColor=#FFB366;" vertex="1" parent="1">
          <mxGeometry x="355" y="190" width="100" height="40" as="geometry" />
        </mxCell>
        <mxCell id="WR90yhrpMD2aqpalSn86-27" value="Límite de crédito" style="ellipse;whiteSpace=wrap;html=1;align=center;fillColor=#FFB366;" vertex="1" parent="1">
          <mxGeometry x="-320" y="180" width="100" height="40" as="geometry" />
        </mxCell>
        <mxCell id="WR90yhrpMD2aqpalSn86-28" value="Saldo" style="ellipse;whiteSpace=wrap;html=1;align=center;fillColor=#FFB366;" vertex="1" parent="1">
          <mxGeometry x="-380" y="310" width="100" height="40" as="geometry" />
        </mxCell>
        <mxCell id="WR90yhrpMD2aqpalSn86-29" value="Descuento" style="ellipse;whiteSpace=wrap;html=1;align=center;fillColor=#FFB366;" vertex="1" parent="1">
          <mxGeometry x="-340" y="430" width="100" height="40" as="geometry" />
        </mxCell>
        <mxCell id="WR90yhrpMD2aqpalSn86-30" value="Provincia" style="ellipse;whiteSpace=wrap;html=1;align=center;fillColor=#FFB366;" vertex="1" parent="1">
          <mxGeometry y="550" width="100" height="40" as="geometry" />
        </mxCell>
        <mxCell id="WR90yhrpMD2aqpalSn86-31" value="Ciudad" style="ellipse;whiteSpace=wrap;html=1;align=center;fillColor=#FFB366;" vertex="1" parent="1">
          <mxGeometry x="-70" y="610" width="100" height="40" as="geometry" />
        </mxCell>
        <mxCell id="WR90yhrpMD2aqpalSn86-32" value="Calle" style="ellipse;whiteSpace=wrap;html=1;align=center;fillColor=#FFB366;" vertex="1" parent="1">
          <mxGeometry x="-200" y="610" width="100" height="40" as="geometry" />
        </mxCell>
        <mxCell id="WR90yhrpMD2aqpalSn86-33" value="N" style="ellipse;whiteSpace=wrap;html=1;align=center;fillColor=#FFB366;" vertex="1" parent="1">
          <mxGeometry x="-320" y="560" width="100" height="40" as="geometry" />
        </mxCell>
        <mxCell id="WR90yhrpMD2aqpalSn86-34" style="edgeStyle=orthogonalEdgeStyle;rounded=0;orthogonalLoop=1;jettySize=auto;html=1;exitX=0.5;exitY=1;exitDx=0;exitDy=0;entryX=0.6;entryY=0.075;entryDx=0;entryDy=0;entryPerimeter=0;endArrow=none;endFill=0;" edge="1" parent="1" source="WR90yhrpMD2aqpalSn86-23" target="WR90yhrpMD2aqpalSn86-32">
          <mxGeometry relative="1" as="geometry" />
        </mxCell>
        <mxCell id="WR90yhrpMD2aqpalSn86-37" style="edgeStyle=orthogonalEdgeStyle;rounded=0;orthogonalLoop=1;jettySize=auto;html=1;entryX=0.34;entryY=-0.1;entryDx=0;entryDy=0;entryPerimeter=0;endArrow=none;endFill=0;" edge="1" parent="1" source="WR90yhrpMD2aqpalSn86-23" target="WR90yhrpMD2aqpalSn86-31">
          <mxGeometry relative="1" as="geometry" />
        </mxCell>
        <mxCell id="WR90yhrpMD2aqpalSn86-38" style="edgeStyle=orthogonalEdgeStyle;rounded=0;orthogonalLoop=1;jettySize=auto;html=1;entryX=0.25;entryY=-0.05;entryDx=0;entryDy=0;entryPerimeter=0;endArrow=none;endFill=0;" edge="1" parent="1" source="WR90yhrpMD2aqpalSn86-23" target="WR90yhrpMD2aqpalSn86-30">
          <mxGeometry relative="1" as="geometry" />
        </mxCell>
        <mxCell id="WR90yhrpMD2aqpalSn86-41" value="Pedidos" style="shape=rhombus;perimeter=rhombusPerimeter;whiteSpace=wrap;html=1;align=center;fillColor=#FF6666;" vertex="1" parent="1">
          <mxGeometry x="60" y="320" width="120" height="60" as="geometry" />
        </mxCell>
      </root>
    </mxGraphModel>
  </diagram>
</mxfile>
